<svg width="139" height="54" viewBox="0 0 139 54" fill="none" xmlns="http://www.w3.org/2000/svg">
<g filter="url(#filter0_d_3_13)">
<path d="M8.50994 25.4545L8.44176 20.4773H9.25994L20.7145 8.81818H25.6918L13.4872 21.1591H13.1463L8.50994 25.4545ZM4.75994 35V0.0909081H8.78267V35H4.75994ZM21.3963 35L11.169 22.0455L14.0327 19.25L26.5099 35H21.3963ZM40.7685 35.5455C38.2457 35.5455 36.0696 34.9886 34.2401 33.875C32.4219 32.75 31.0185 31.1818 30.0298 29.1705C29.0526 27.1477 28.5639 24.7955 28.5639 22.1136C28.5639 19.4318 29.0526 17.0682 30.0298 15.0227C31.0185 12.9659 32.3935 11.3636 34.1548 10.2159C35.9276 9.05682 37.9957 8.47727 40.3594 8.47727C41.723 8.47727 43.0696 8.70455 44.3991 9.15909C45.7287 9.61364 46.9389 10.3523 48.0298 11.375C49.1207 12.3864 49.9901 13.7273 50.6378 15.3977C51.2855 17.0682 51.6094 19.125 51.6094 21.5682V23.2727H31.4276V19.7955H47.5185C47.5185 18.3182 47.223 17 46.6321 15.8409C46.0526 14.6818 45.223 13.767 44.1435 13.0966C43.0753 12.4261 41.8139 12.0909 40.3594 12.0909C38.7571 12.0909 37.3707 12.4886 36.2003 13.2841C35.0412 14.0682 34.1491 15.0909 33.5241 16.3523C32.8991 17.6136 32.5866 18.9659 32.5866 20.4091V22.7273C32.5866 24.7045 32.9276 26.3807 33.6094 27.7557C34.3026 29.1193 35.2628 30.1591 36.4901 30.875C37.7173 31.5795 39.1435 31.9318 40.7685 31.9318C41.8253 31.9318 42.7798 31.7841 43.6321 31.4886C44.4957 31.1818 45.2401 30.7273 45.8651 30.125C46.4901 29.5114 46.973 28.75 47.3139 27.8409L51.2003 28.9318C50.7912 30.25 50.1037 31.4091 49.1378 32.4091C48.1719 33.3977 46.9787 34.1705 45.5582 34.7273C44.1378 35.2727 42.5412 35.5455 40.7685 35.5455ZM59.5227 44.8182C58.8409 44.8182 58.233 44.7614 57.6989 44.6477C57.1648 44.5455 56.7955 44.4432 56.5909 44.3409L57.6136 40.7955C58.5909 41.0455 59.4545 41.1364 60.2045 41.0682C60.9545 41 61.6193 40.6648 62.1989 40.0625C62.7898 39.4716 63.3295 38.5114 63.8182 37.1818L64.5682 35.1364L54.8864 8.81818H59.25L66.4773 29.6818H66.75L73.9773 8.81818H78.3409L67.2273 38.8182C66.7273 40.1705 66.108 41.2898 65.3693 42.1761C64.6307 43.0739 63.7727 43.7386 62.7955 44.1705C61.8295 44.6023 60.7386 44.8182 59.5227 44.8182ZM93.2812 45.3636C91.3381 45.3636 89.6676 45.1136 88.2699 44.6136C86.8722 44.125 85.7074 43.4773 84.7756 42.6705C83.8551 41.875 83.1222 41.0227 82.5767 40.1136L85.7812 37.8636C86.1449 38.3409 86.6051 38.8864 87.1619 39.5C87.7188 40.125 88.4801 40.6648 89.446 41.1193C90.4233 41.5852 91.7017 41.8182 93.2812 41.8182C95.3949 41.8182 97.1392 41.3068 98.5142 40.2841C99.8892 39.2614 100.577 37.6591 100.577 35.4773V30.1591H100.236C99.9403 30.6364 99.5199 31.2273 98.9744 31.9318C98.4403 32.625 97.6676 33.2443 96.6562 33.7898C95.6562 34.3239 94.304 34.5909 92.5994 34.5909C90.4858 34.5909 88.5881 34.0909 86.9062 33.0909C85.2358 32.0909 83.9119 30.6364 82.9347 28.7273C81.9688 26.8182 81.4858 24.5 81.4858 21.7727C81.4858 19.0909 81.9574 16.7557 82.9006 14.767C83.8438 12.767 85.1563 11.2216 86.8381 10.1307C88.5199 9.02841 90.4631 8.47727 92.6676 8.47727C94.3722 8.47727 95.7244 8.76136 96.7244 9.32955C97.7358 9.88636 98.5085 10.5227 99.0426 11.2386C99.5881 11.9432 100.009 12.5227 100.304 12.9773H100.713V8.81818H104.599V35.75C104.599 38 104.088 39.8295 103.065 41.2386C102.054 42.6591 100.69 43.6989 98.9744 44.358C97.2699 45.0284 95.3722 45.3636 93.2812 45.3636ZM93.1449 30.9773C94.7585 30.9773 96.1222 30.608 97.2358 29.8693C98.3494 29.1307 99.196 28.0682 99.7756 26.6818C100.355 25.2955 100.645 23.6364 100.645 21.7045C100.645 19.8182 100.361 18.1534 99.7926 16.7102C99.2244 15.267 98.3835 14.1364 97.2699 13.3182C96.1563 12.5 94.7813 12.0909 93.1449 12.0909C91.4403 12.0909 90.0199 12.5227 88.8835 13.3864C87.7585 14.25 86.9119 15.4091 86.3438 16.8636C85.7869 18.3182 85.5085 19.9318 85.5085 21.7045C85.5085 23.5227 85.7926 25.1307 86.3608 26.5284C86.9403 27.9148 87.7926 29.0057 88.9176 29.8011C90.054 30.5852 91.4631 30.9773 93.1449 30.9773ZM122.599 35.5455C120.236 35.5455 118.162 34.983 116.378 33.858C114.605 32.733 113.219 31.1591 112.219 29.1364C111.23 27.1136 110.736 24.75 110.736 22.0455C110.736 19.3182 111.23 16.9375 112.219 14.9034C113.219 12.8693 114.605 11.2898 116.378 10.1648C118.162 9.03977 120.236 8.47727 122.599 8.47727C124.963 8.47727 127.031 9.03977 128.804 10.1648C130.588 11.2898 131.974 12.8693 132.963 14.9034C133.963 16.9375 134.463 19.3182 134.463 22.0455C134.463 24.75 133.963 27.1136 132.963 29.1364C131.974 31.1591 130.588 32.733 128.804 33.858C127.031 34.983 124.963 35.5455 122.599 35.5455ZM122.599 31.9318C124.395 31.9318 125.872 31.4716 127.031 30.5511C128.19 29.6307 129.048 28.4205 129.605 26.9205C130.162 25.4205 130.44 23.7955 130.44 22.0455C130.44 20.2955 130.162 18.6648 129.605 17.1534C129.048 15.642 128.19 14.4205 127.031 13.4886C125.872 12.5568 124.395 12.0909 122.599 12.0909C120.804 12.0909 119.327 12.5568 118.168 13.4886C117.009 14.4205 116.151 15.642 115.594 17.1534C115.037 18.6648 114.759 20.2955 114.759 22.0455C114.759 23.7955 115.037 25.4205 115.594 26.9205C116.151 28.4205 117.009 29.6307 118.168 30.5511C119.327 31.4716 120.804 31.9318 122.599 31.9318Z" fill="#BA1313"/>
<path d="M8.50994 25.4545L8.00999 25.4614L8.02538 26.5851L8.84975 25.8213L8.50994 25.4545ZM8.44176 20.4773V19.9773H7.93487L7.94181 20.4841L8.44176 20.4773ZM9.25994 20.4773V20.9773H9.46965L9.61661 20.8277L9.25994 20.4773ZM20.7145 8.81818V8.31818H20.5048L20.3578 8.46777L20.7145 8.81818ZM25.6918 8.81818L26.0473 9.16976L26.8894 8.31818H25.6918V8.81818ZM13.4872 21.1591V21.6591H13.696L13.8427 21.5107L13.4872 21.1591ZM13.1463 21.1591V20.6591H12.9503L12.8065 20.7923L13.1463 21.1591ZM4.75994 35H4.25994V35.5H4.75994V35ZM4.75994 0.0909081V-0.409092H4.25994V0.0909081H4.75994ZM8.78267 0.0909081H9.28267V-0.409092H8.78267V0.0909081ZM8.78267 35V35.5H9.28267V35H8.78267ZM21.3963 35L21.0039 35.3098L21.154 35.5H21.3963V35ZM11.169 22.0455L10.8198 21.6877L10.4977 22.002L10.7766 22.3553L11.169 22.0455ZM14.0327 19.25L14.4246 18.9395L14.0802 18.5048L13.6834 18.8922L14.0327 19.25ZM26.5099 35V35.5H27.5439L26.9019 34.6895L26.5099 35ZM9.0099 25.4477L8.94171 20.4704L7.94181 20.4841L8.00999 25.4614L9.0099 25.4477ZM8.44176 20.9773H9.25994V19.9773H8.44176V20.9773ZM9.61661 20.8277L21.0712 9.16859L20.3578 8.46777L8.90328 20.1269L9.61661 20.8277ZM20.7145 9.31818H25.6918V8.31818H20.7145V9.31818ZM25.3363 8.4666L13.1317 20.8075L13.8427 21.5107L26.0473 9.16976L25.3363 8.4666ZM13.4872 20.6591H13.1463V21.6591H13.4872V20.6591ZM12.8065 20.7923L8.17013 25.0878L8.84975 25.8213L13.4861 21.5259L12.8065 20.7923ZM5.25994 35V0.0909081H4.25994V35H5.25994ZM4.75994 0.590908H8.78267V-0.409092H4.75994V0.590908ZM8.28267 0.0909081V35H9.28267V0.0909081H8.28267ZM8.78267 34.5H4.75994V35.5H8.78267V34.5ZM21.7887 34.6902L11.5615 21.7356L10.7766 22.3553L21.0039 35.3098L21.7887 34.6902ZM11.5183 22.4032L14.3819 19.6078L13.6834 18.8922L10.8198 21.6877L11.5183 22.4032ZM13.6408 19.5605L26.118 35.3105L26.9019 34.6895L14.4246 18.9395L13.6408 19.5605ZM26.5099 34.5H21.3963V35.5H26.5099V34.5ZM34.2401 33.875L33.977 34.3002L33.9801 34.3021L34.2401 33.875ZM30.0298 29.1705L29.5796 29.388L29.5811 29.391L30.0298 29.1705ZM30.0298 15.0227L29.5792 14.8061L29.5787 14.8072L30.0298 15.0227ZM34.1548 10.2159L34.4278 10.6348L34.4285 10.6344L34.1548 10.2159ZM44.3991 9.15909L44.5609 8.68597L44.5609 8.68597L44.3991 9.15909ZM48.0298 11.375L47.6879 11.7398L47.6899 11.7417L48.0298 11.375ZM50.6378 15.3977L51.104 15.217L51.104 15.217L50.6378 15.3977ZM51.6094 23.2727V23.7727H52.1094V23.2727H51.6094ZM31.4276 23.2727H30.9276V23.7727H31.4276V23.2727ZM31.4276 19.7955V19.2955H30.9276V19.7955H31.4276ZM47.5185 19.7955V20.2955H48.0185V19.7955H47.5185ZM46.6321 15.8409L46.1849 16.0645L46.1867 16.068L46.6321 15.8409ZM44.1435 13.0966L43.8777 13.5201L43.8797 13.5213L44.1435 13.0966ZM36.2003 13.2841L36.4804 13.6982L36.4813 13.6976L36.2003 13.2841ZM33.5241 16.3523L33.0761 16.1303L33.0761 16.1303L33.5241 16.3523ZM33.6094 27.7557L33.1614 27.9778L33.1637 27.9823L33.6094 27.7557ZM36.4901 30.875L36.2381 31.3069L36.2411 31.3086L36.4901 30.875ZM43.6321 31.4886L43.7959 31.9611L43.7995 31.9598L43.6321 31.4886ZM45.8651 30.125L46.212 30.4851L46.2154 30.4818L45.8651 30.125ZM47.3139 27.8409L47.449 27.3595L47.007 27.2354L46.8458 27.6653L47.3139 27.8409ZM51.2003 28.9318L51.6778 29.08L51.8301 28.5893L51.3354 28.4504L51.2003 28.9318ZM49.1378 32.4091L49.4954 32.7585L49.4974 32.7565L49.1378 32.4091ZM45.5582 34.7273L45.7375 35.1941L45.7407 35.1928L45.5582 34.7273ZM40.7685 35.0455C38.3209 35.0455 36.2383 34.506 34.5 33.4479L33.9801 34.3021C35.9009 35.4713 38.1705 36.0455 40.7685 36.0455V35.0455ZM34.5031 33.4498C32.7688 32.3767 31.4279 30.8812 30.4786 28.9499L29.5811 29.391C30.6091 31.4824 32.075 33.1233 33.977 34.3002L34.5031 33.4498ZM30.48 28.9529C29.5413 27.0099 29.0639 24.7346 29.0639 22.1136H28.0639C28.0639 24.8563 28.5638 27.2855 29.5796 29.388L30.48 28.9529ZM29.0639 22.1136C29.0639 19.4929 29.5412 17.2052 30.481 15.2383L29.5787 14.8072C28.5639 16.9312 28.0639 19.3708 28.0639 22.1136H29.0639ZM30.4805 15.2393C31.433 13.2576 32.7496 11.7284 34.4278 10.6348L33.8819 9.797C32.0374 10.9989 30.6039 12.6742 29.5792 14.8061L30.4805 15.2393ZM34.4285 10.6344C36.1106 9.53454 38.0813 8.97727 40.3594 8.97727V7.97727C37.9102 7.97727 35.7445 8.5791 33.8812 9.79742L34.4285 10.6344ZM40.3594 8.97727C41.6663 8.97727 42.9583 9.19491 44.2374 9.6322L44.5609 8.68597C43.1809 8.21418 41.7797 7.97727 40.3594 7.97727V8.97727ZM44.2374 9.6322C45.4956 10.0624 46.6453 10.7624 47.6879 11.7398L48.3718 11.0102C47.2326 9.94219 45.9618 9.16491 44.5609 8.68597L44.2374 9.6322ZM47.6899 11.7417C48.7149 12.692 49.5458 13.9645 50.1716 15.5785L51.104 15.217C50.4343 13.49 49.5265 12.0808 48.3698 11.0083L47.6899 11.7417ZM50.1716 15.5785C50.7905 17.1745 51.1094 19.1658 51.1094 21.5682H52.1094C52.1094 19.0842 51.7806 16.9619 51.104 15.217L50.1716 15.5785ZM51.1094 21.5682V23.2727H52.1094V21.5682H51.1094ZM51.6094 22.7727H31.4276V23.7727H51.6094V22.7727ZM31.9276 23.2727V19.7955H30.9276V23.2727H31.9276ZM31.4276 20.2955H47.5185V19.2955H31.4276V20.2955ZM48.0185 19.7955C48.0185 18.25 47.7089 16.8522 47.0776 15.6138L46.1867 16.068C46.7371 17.1478 47.0185 18.3863 47.0185 19.7955H48.0185ZM47.0793 15.6173C46.4593 14.3772 45.567 13.3921 44.4073 12.6718L43.8797 13.5213C44.879 14.142 45.6458 14.9864 46.1849 16.0645L47.0793 15.6173ZM44.4093 12.6731C43.2498 11.9454 41.8932 11.5909 40.3594 11.5909V12.5909C41.7346 12.5909 42.9007 12.9069 43.8777 13.5201L44.4093 12.6731ZM40.3594 11.5909C38.6706 11.5909 37.1833 12.0115 35.9192 12.8706L36.4813 13.6976C37.5582 12.9658 38.8436 12.5909 40.3594 12.5909V11.5909ZM35.9201 12.8699C34.689 13.7028 33.7393 14.7919 33.0761 16.1303L33.9722 16.5743C34.559 15.3899 35.3934 14.4336 36.4804 13.6982L35.9201 12.8699ZM33.0761 16.1303C32.4161 17.4624 32.0866 18.8909 32.0866 20.4091H33.0866C33.0866 19.0409 33.3822 17.7648 33.9722 16.5743L33.0761 16.1303ZM32.0866 20.4091V22.7273H33.0866V20.4091H32.0866ZM32.0866 22.7273C32.0866 24.7601 32.437 26.5168 33.1614 27.9778L34.0573 27.5336C33.4182 26.2446 33.0866 24.649 33.0866 22.7273H32.0866ZM33.1637 27.9823C33.8969 29.4247 34.9215 30.5388 36.2381 31.3069L36.742 30.4431C35.6041 29.7793 34.7082 28.814 34.0551 27.5291L33.1637 27.9823ZM36.2411 31.3086C37.5548 32.0628 39.0693 32.4318 40.7685 32.4318V31.4318C39.2177 31.4318 37.8799 31.0963 36.739 30.4414L36.2411 31.3086ZM40.7685 32.4318C41.8717 32.4318 42.8828 32.2776 43.7959 31.9611L43.4683 31.0162C42.6769 31.2906 41.7789 31.4318 40.7685 31.4318V32.4318ZM43.7995 31.9598C44.7264 31.6305 45.5329 31.1395 46.212 30.485L45.5181 29.765C44.9472 30.3151 44.2651 30.7331 43.4647 31.0175L43.7995 31.9598ZM46.2154 30.4818C46.8978 29.8117 47.4184 28.9864 47.7821 28.0165L46.8458 27.6653C46.5277 28.5136 46.0823 29.211 45.5148 29.7682L46.2154 30.4818ZM47.1788 28.3223L51.0652 29.4132L51.3354 28.4504L47.449 27.3595L47.1788 28.3223ZM50.7228 28.7836C50.337 30.0265 49.6901 31.1175 48.7782 32.0617L49.4974 32.7565C50.5172 31.7006 51.2454 30.4735 51.6778 29.08L50.7228 28.7836ZM48.7801 32.0597C47.8687 32.9926 46.7372 33.7281 45.3758 34.2618L45.7407 35.1928C47.2202 34.6128 48.4751 33.8029 49.4954 32.7585L48.7801 32.0597ZM45.379 34.2605C44.0244 34.7807 42.4899 35.0455 40.7685 35.0455V36.0455C42.5925 36.0455 44.2512 35.7648 45.7375 35.194L45.379 34.2605ZM57.6989 44.6477L57.8029 44.1586L57.7929 44.1567L57.6989 44.6477ZM56.5909 44.3409L56.1105 44.2023L55.9952 44.6021L56.3673 44.7881L56.5909 44.3409ZM57.6136 40.7955L57.7376 40.3111L57.2677 40.1908L57.1332 40.6569L57.6136 40.7955ZM60.2045 41.0682L60.1593 40.5702L60.1593 40.5702L60.2045 41.0682ZM62.1989 40.0625L61.8452 39.7089L61.8386 39.7158L62.1989 40.0625ZM63.8182 37.1818L64.2875 37.3543L64.2876 37.3539L63.8182 37.1818ZM64.5682 35.1364L65.0376 35.3085L65.1008 35.1361L65.0374 34.9637L64.5682 35.1364ZM54.8864 8.81818V8.31818H54.1697L54.4171 8.99081L54.8864 8.81818ZM59.25 8.81818L59.7225 8.65452L59.6059 8.31818H59.25V8.81818ZM66.4773 29.6818L66.0048 29.8455L66.1213 30.1818H66.4773V29.6818ZM66.75 29.6818V30.1818H67.1059L67.2225 29.8455L66.75 29.6818ZM73.9773 8.81818V8.31818H73.6213L73.5048 8.65452L73.9773 8.81818ZM78.3409 8.81818L78.8098 8.99187L79.0593 8.31818H78.3409V8.81818ZM67.2273 38.8182L66.7584 38.6445L66.7583 38.6448L67.2273 38.8182ZM65.3693 42.1761L64.9852 41.856L64.9832 41.8585L65.3693 42.1761ZM62.7955 44.1705L62.5934 43.7131L62.5914 43.714L62.7955 44.1705ZM59.5227 44.3182C58.8677 44.3182 58.2956 44.2635 57.8029 44.1587L57.5948 45.1368C58.1703 45.2592 58.8142 45.3182 59.5227 45.3182V44.3182ZM57.7929 44.1567C57.2591 44.0544 56.9511 43.962 56.8145 43.8937L56.3673 44.7881C56.6398 44.9244 57.0705 45.0365 57.6048 45.1388L57.7929 44.1567ZM57.0713 44.4795L58.094 40.934L57.1332 40.6569L56.1105 44.2023L57.0713 44.4795ZM57.4897 41.2799C58.5046 41.5395 59.4274 41.6409 60.2498 41.5661L60.1593 40.5702C59.4816 40.6318 58.6772 40.5514 57.7376 40.3111L57.4897 41.2799ZM60.2498 41.5661C61.133 41.4858 61.906 41.0879 62.5592 40.4092L61.8386 39.7158C61.3326 40.2416 60.7761 40.5142 60.1593 40.5702L60.2498 41.5661ZM62.5524 40.4161C63.2184 39.7501 63.7889 38.7109 64.2875 37.3543L63.3489 37.0093C62.8702 38.3118 62.3611 39.1931 61.8453 39.7089L62.5524 40.4161ZM64.2876 37.3539L65.0376 35.3085L64.0987 34.9642L63.3487 37.0097L64.2876 37.3539ZM65.0374 34.9637L55.3556 8.64555L54.4171 8.99081L64.0989 35.309L65.0374 34.9637ZM54.8864 9.31818H59.25V8.31818H54.8864V9.31818ZM58.7775 8.98184L66.0048 29.8455L66.9497 29.5182L59.7225 8.65452L58.7775 8.98184ZM66.4773 30.1818H66.75V29.1818H66.4773V30.1818ZM67.2225 29.8455L74.4497 8.98184L73.5048 8.65452L66.2775 29.5182L67.2225 29.8455ZM73.9773 9.31818H78.3409V8.31818H73.9773V9.31818ZM77.872 8.64449L66.7584 38.6445L67.6961 38.9919L78.8098 8.99187L77.872 8.64449ZM66.7583 38.6448C66.2733 39.9565 65.6796 41.0228 64.9852 41.856L65.7534 42.4962C66.5363 41.5568 67.1812 40.3845 67.6962 38.9916L66.7583 38.6448ZM64.9832 41.8585C64.2897 42.7013 63.4931 43.3156 62.5934 43.7131L62.9975 44.6278C64.0524 44.1617 64.9716 43.4464 65.7554 42.4938L64.9832 41.8585ZM62.5914 43.714C61.6986 44.1131 60.6788 44.3182 59.5227 44.3182V45.3182C60.7985 45.3182 61.9605 45.0914 62.9995 44.6269L62.5914 43.714ZM88.2699 44.6136L88.4383 44.1428L88.4349 44.1416L88.2699 44.6136ZM84.7756 42.6705L85.1029 42.2925L85.1025 42.2921L84.7756 42.6705ZM82.5767 40.1136L82.2894 39.7044L81.9085 39.9718L82.148 40.3709L82.5767 40.1136ZM85.7812 37.8636L86.179 37.5606L85.8875 37.1781L85.4939 37.4544L85.7812 37.8636ZM87.1619 39.5L87.5353 39.1674L87.5322 39.164L87.1619 39.5ZM89.446 41.1193L89.6612 40.668L89.6589 40.6669L89.446 41.1193ZM98.5142 40.2841L98.8126 40.6853L98.8126 40.6853L98.5142 40.2841ZM100.577 30.1591H101.077V29.6591H100.577V30.1591ZM100.236 30.1591V29.6591H99.9573L99.8107 29.8959L100.236 30.1591ZM98.9744 31.9318L98.5791 31.6257L98.5784 31.6266L98.9744 31.9318ZM96.6562 33.7898L96.8918 34.2308L96.8936 34.2298L96.6562 33.7898ZM86.9062 33.0909L86.6494 33.5199L86.6507 33.5207L86.9062 33.0909ZM82.9347 28.7273L82.4885 28.953L82.4896 28.9551L82.9347 28.7273ZM82.9006 14.767L83.3523 14.9813L83.3528 14.9803L82.9006 14.767ZM86.8381 10.1307L87.1102 10.5502L87.1121 10.5489L86.8381 10.1307ZM96.7244 9.32955L96.4774 9.76431L96.4833 9.76755L96.7244 9.32955ZM99.0426 11.2386L98.6418 11.5377L98.6473 11.5447L99.0426 11.2386ZM100.304 12.9773L99.8848 13.2498L100.033 13.4773H100.304V12.9773ZM100.713 12.9773V13.4773H101.213V12.9773H100.713ZM100.713 8.81818V8.31818H100.213V8.81818H100.713ZM104.599 8.81818H105.099V8.31818H104.599V8.81818ZM103.065 41.2386L102.661 40.9449L102.658 40.9486L103.065 41.2386ZM98.9744 44.358L98.7951 43.8912L98.7914 43.8927L98.9744 44.358ZM97.2358 29.8693L96.9594 29.4526L96.9594 29.4526L97.2358 29.8693ZM99.7756 26.6818L100.237 26.8747L100.237 26.8747L99.7756 26.6818ZM99.7926 16.7102L100.258 16.5271L100.258 16.5271L99.7926 16.7102ZM97.2699 13.3182L96.9738 13.7211L96.9738 13.7211L97.2699 13.3182ZM88.8835 13.3864L88.581 12.9883L88.5791 12.9898L88.8835 13.3864ZM86.3438 16.8636L85.878 16.6817L85.8768 16.6849L86.3438 16.8636ZM86.3608 26.5284L85.8976 26.7167L85.8995 26.7213L86.3608 26.5284ZM88.9176 29.8011L88.6289 30.2094L88.6337 30.2127L88.9176 29.8011ZM93.2812 44.8636C91.3787 44.8636 89.7682 44.6186 88.4383 44.1429L88.1015 45.0844C89.567 45.6087 91.2974 45.8636 93.2812 45.8636V44.8636ZM88.4349 44.1416C87.085 43.6697 85.9784 43.0506 85.1029 42.2925L84.4483 43.0485C85.4363 43.904 86.6593 44.5803 88.1049 45.0856L88.4349 44.1416ZM85.1025 42.2921C84.2164 41.5264 83.5199 40.7138 83.0055 39.8564L82.148 40.3709C82.7244 41.3316 83.4938 42.2236 84.4486 43.0488L85.1025 42.2921ZM82.864 40.5228L86.0686 38.2728L85.4939 37.4544L82.2894 39.7044L82.864 40.5228ZM85.3835 38.1667C85.7584 38.6587 86.2285 39.2154 86.7917 39.836L87.5322 39.164C86.9817 38.5573 86.5314 38.0232 86.179 37.5606L85.3835 38.1667ZM86.7886 39.8326C87.4008 40.5197 88.2223 41.0961 89.2331 41.5717L89.6589 40.6669C88.7379 40.2335 88.0367 39.7303 87.5353 39.1674L86.7886 39.8326ZM89.2309 41.5707C90.2989 42.0798 91.6588 42.3182 93.2812 42.3182V41.3182C91.7446 41.3182 90.5477 41.0906 89.6612 40.668L89.2309 41.5707ZM93.2812 42.3182C95.4768 42.3182 97.3329 41.7859 98.8126 40.6853L98.2158 39.8829C96.9455 40.8277 95.3129 41.3182 93.2812 41.3182V42.3182ZM98.8126 40.6853C100.348 39.543 101.077 37.7695 101.077 35.4773H100.077C100.077 37.5487 99.43 38.9797 98.2158 39.8829L98.8126 40.6853ZM101.077 35.4773V30.1591H100.077V35.4773H101.077ZM100.577 29.6591H100.236V30.6591H100.577V29.6591ZM99.8107 29.8959C99.5281 30.3524 99.1193 30.928 98.5791 31.6257L99.3698 32.2379C99.9205 31.5266 100.353 30.9203 100.661 30.4223L99.8107 29.8959ZM98.5784 31.6266C98.0983 32.2497 97.3869 32.8276 96.4189 33.3497L96.8936 34.2298C97.9483 33.661 98.7824 33.0003 99.3705 32.237L98.5784 31.6266ZM96.4207 33.3487C95.5206 33.8295 94.2598 34.0909 92.5994 34.0909V35.0909C94.3481 35.0909 95.7919 34.8183 96.8918 34.2308L96.4207 33.3487ZM92.5994 34.0909C90.5683 34.0909 88.7601 33.6115 87.1618 32.6611L86.6507 33.5207C88.416 34.5703 90.4033 35.0909 92.5994 35.0909V34.0909ZM87.1631 32.6619C85.581 31.7148 84.3188 30.3339 83.3797 28.4994L82.4896 28.9551C83.505 30.9388 84.8906 32.467 86.6494 33.5199L87.1631 32.6619ZM83.3808 28.5015C82.4587 26.679 81.9858 24.4425 81.9858 21.7727H80.9858C80.9858 24.5575 81.4788 26.9574 82.4885 28.953L83.3808 28.5015ZM81.9858 21.7727C81.9858 19.1491 82.4471 16.89 83.3523 14.9813L82.4488 14.5528C81.4677 16.6214 80.9858 19.0327 80.9858 21.7727H81.9858ZM83.3528 14.9803C84.2605 13.0555 85.5143 11.5853 87.1102 10.5502L86.566 9.7112C84.7982 10.8579 83.427 12.4786 82.4483 14.5538L83.3528 14.9803ZM87.1121 10.5489C88.7047 9.50508 90.5507 8.97727 92.6676 8.97727V7.97727C90.3755 7.97727 88.335 8.55173 86.564 9.7125L87.1121 10.5489ZM92.6676 8.97727C94.3243 8.97727 95.5805 9.25464 96.4774 9.76427L96.9714 8.89482C95.8684 8.26809 94.42 7.97727 92.6676 7.97727V8.97727ZM96.4833 9.76755C97.4497 10.2996 98.161 10.8931 98.6419 11.5376L99.4434 10.9397C98.8561 10.1524 98.0219 9.47311 96.9656 8.89154L96.4833 9.76755ZM98.6473 11.5447C99.1889 12.2443 99.6 12.8117 99.8848 13.2498L100.723 12.7048C100.417 12.2338 99.9872 11.642 99.438 10.9325L98.6473 11.5447ZM100.304 13.4773H100.713V12.4773H100.304V13.4773ZM101.213 12.9773V8.81818H100.213V12.9773H101.213ZM100.713 9.31818H104.599V8.31818H100.713V9.31818ZM104.099 8.81818V35.75H105.099V8.81818H104.099ZM104.099 35.75C104.099 37.9253 103.606 39.6432 102.661 40.9449L103.47 41.5323C104.571 40.0159 105.099 38.0747 105.099 35.75H104.099ZM102.658 40.9486C101.707 42.2846 100.425 43.2653 98.7952 43.8912L99.1537 44.8247C100.956 44.1324 102.401 43.0336 103.473 41.5286L102.658 40.9486ZM98.7914 43.8927C97.1528 44.5372 95.3183 44.8636 93.2812 44.8636V45.8636C95.426 45.8636 97.387 45.5196 99.1575 44.8233L98.7914 43.8927ZM93.1449 31.4773C94.8362 31.4773 96.3009 31.0894 97.5122 30.286L96.9594 29.4526C95.9434 30.1265 94.6809 30.4773 93.1449 30.4773V31.4773ZM97.5122 30.286C98.7182 29.486 99.6241 28.3405 100.237 26.8747L99.3143 26.489C98.7679 27.7958 97.9806 28.7753 96.9594 29.4526L97.5122 30.286ZM100.237 26.8747C100.848 25.4125 101.145 23.6845 101.145 21.7045H100.145C100.145 23.5883 99.8621 25.1784 99.3143 26.489L100.237 26.8747ZM101.145 21.7045C101.145 19.7687 100.853 18.0397 100.258 16.5271L99.3274 16.8934C99.8682 18.2671 100.145 19.8677 100.145 21.7045H101.145ZM100.258 16.5271C99.6595 15.0072 98.7646 13.7959 97.5659 12.9152L96.9738 13.7211C98.0024 14.4768 98.7894 15.5269 99.3274 16.8934L100.258 16.5271ZM97.5659 12.9152C96.3515 12.023 94.8675 11.5909 93.1449 11.5909V12.5909C94.695 12.5909 95.961 12.977 96.9738 13.7211L97.5659 12.9152ZM93.1449 11.5909C91.353 11.5909 89.8203 12.0464 88.581 12.9883L89.1861 13.7844C90.2195 12.9991 91.5277 12.5909 93.1449 12.5909V11.5909ZM88.5791 12.9898C87.3746 13.9144 86.4759 15.1511 85.878 16.6817L86.8095 17.0456C87.3479 15.6671 88.1425 14.5856 89.188 13.783L88.5791 12.9898ZM85.8768 16.6849C85.2953 18.2038 85.0085 19.8791 85.0085 21.7045H86.0085C86.0085 19.9846 86.2785 18.4326 86.8107 17.0424L85.8768 16.6849ZM85.0085 21.7045C85.0085 23.5744 85.3007 25.2483 85.8976 26.7167L86.824 26.3401C86.2845 25.0131 86.0085 23.4711 86.0085 21.7045H85.0085ZM85.8995 26.7213C86.5118 28.1861 87.4204 29.3549 88.6289 30.2094L89.2063 29.3929C88.1648 28.6565 87.3689 27.6435 86.8221 26.3356L85.8995 26.7213ZM88.6337 30.2127C89.8702 31.0659 91.3841 31.4773 93.1449 31.4773V30.4773C91.5421 30.4773 90.2377 30.1045 89.2016 29.3896L88.6337 30.2127ZM116.378 33.858L116.11 34.2801L116.111 34.2809L116.378 33.858ZM112.219 29.1364L111.77 29.3559L111.771 29.358L112.219 29.1364ZM112.219 14.9034L111.77 14.6828L111.769 14.6848L112.219 14.9034ZM116.378 10.1648L116.111 9.74183L116.11 9.74261L116.378 10.1648ZM128.804 10.1648L128.536 10.5869L128.537 10.5877L128.804 10.1648ZM132.963 14.9034L132.513 15.122L132.514 15.124L132.963 14.9034ZM132.963 29.1364L132.515 28.9148L132.514 28.9168L132.963 29.1364ZM128.804 33.858L128.537 33.435L128.536 33.4358L128.804 33.858ZM127.031 30.5511L126.72 30.1596L126.72 30.1596L127.031 30.5511ZM129.605 26.9205L130.074 27.0945L130.074 27.0945L129.605 26.9205ZM129.605 17.1534L130.074 16.9806L130.074 16.9806L129.605 17.1534ZM127.031 13.4886L127.345 13.0989L127.345 13.0989L127.031 13.4886ZM118.168 13.4886L117.854 13.0989L117.854 13.0989L118.168 13.4886ZM115.594 17.1534L115.125 16.9806L115.125 16.9806L115.594 17.1534ZM115.594 26.9205L115.125 27.0945L115.125 27.0945L115.594 26.9205ZM118.168 30.5511L118.479 30.1596L118.479 30.1596L118.168 30.5511ZM122.599 35.0455C120.318 35.0455 118.339 34.5038 116.645 33.435L116.111 34.2809C117.984 35.4621 120.153 36.0455 122.599 36.0455V35.0455ZM116.646 33.4358C114.956 32.3635 113.63 30.8618 112.667 28.9148L111.771 29.358C112.808 31.4564 114.254 33.1024 116.11 34.2801L116.646 33.4358ZM112.668 28.9168C111.719 26.9748 111.236 24.689 111.236 22.0455H110.236C110.236 24.811 110.741 27.2524 111.77 29.3559L112.668 28.9168ZM111.236 22.0455C111.236 19.3785 111.719 17.0754 112.668 15.122L111.769 14.6848C110.741 16.7996 110.236 19.2578 110.236 22.0455H111.236ZM112.667 15.124C113.63 13.1656 114.957 11.6587 116.646 10.5869L116.11 9.74261C114.253 10.9208 112.807 12.573 111.77 14.6828L112.667 15.124ZM116.645 10.5877C118.339 9.51897 120.318 8.97727 122.599 8.97727V7.97727C120.153 7.97727 117.984 8.56058 116.111 9.74184L116.645 10.5877ZM122.599 8.97727C124.88 8.97727 126.853 9.51898 128.536 10.5869L129.072 9.74261C127.209 8.56057 125.046 7.97727 122.599 7.97727V8.97727ZM128.537 10.5877C130.237 11.6594 131.562 13.1654 132.513 15.122L133.413 14.6848C132.386 12.5732 130.939 10.9202 129.071 9.74184L128.537 10.5877ZM132.514 15.124C133.474 17.0769 133.963 19.3793 133.963 22.0455H134.963C134.963 19.257 134.452 16.7981 133.412 14.6828L132.514 15.124ZM133.963 22.0455C133.963 24.6882 133.475 26.9733 132.515 28.9148L133.411 29.358C134.451 27.254 134.963 24.8118 134.963 22.0455H133.963ZM132.514 28.9168C131.563 30.862 130.237 32.3629 128.537 33.435L129.071 34.2809C130.939 33.103 132.386 31.4562 133.412 29.3559L132.514 28.9168ZM128.536 33.4358C126.853 34.5037 124.88 35.0455 122.599 35.0455V36.0455C125.046 36.0455 127.209 35.4622 129.072 34.2801L128.536 33.4358ZM122.599 32.4318C124.483 32.4318 126.077 31.9474 127.342 30.9427L126.72 30.1596C125.667 30.9958 124.307 31.4318 122.599 31.4318V32.4318ZM127.342 30.9427C128.579 29.9609 129.488 28.6728 130.074 27.0945L129.136 26.7464C128.609 28.1681 127.802 29.3005 126.72 30.1596L127.342 30.9427ZM130.074 27.0945C130.653 25.5338 130.94 23.8493 130.94 22.0455H129.94C129.94 23.7416 129.671 25.3071 129.136 26.7464L130.074 27.0945ZM130.94 22.0455C130.94 20.2416 130.653 18.5519 130.074 16.9806L129.136 17.3263C129.671 18.7777 129.94 20.3493 129.94 22.0455H130.94ZM130.074 16.9806C129.489 15.3914 128.58 14.0923 127.345 13.0989L126.718 13.8783C127.801 14.7486 128.608 15.8927 129.136 17.3263L130.074 16.9806ZM127.345 13.0989C126.079 12.0818 124.484 11.5909 122.599 11.5909V12.5909C124.305 12.5909 125.665 13.0318 126.718 13.8783L127.345 13.0989ZM122.599 11.5909C120.714 11.5909 119.12 12.0818 117.854 13.0989L118.481 13.8783C119.534 13.0318 120.893 12.5909 122.599 12.5909V11.5909ZM117.854 13.0989C116.619 14.0923 115.71 15.3914 115.125 16.9806L116.063 17.3263C116.591 15.8927 117.398 14.7486 118.481 13.8783L117.854 13.0989ZM115.125 16.9806C114.546 18.5519 114.259 20.2416 114.259 22.0455H115.259C115.259 20.3493 115.528 18.7777 116.063 17.3263L115.125 16.9806ZM114.259 22.0455C114.259 23.8493 114.546 25.5338 115.125 27.0945L116.062 26.7464C115.528 25.3071 115.259 23.7416 115.259 22.0455H114.259ZM115.125 27.0945C115.711 28.6728 116.62 29.9609 117.857 30.9427L118.479 30.1596C117.397 29.3005 116.59 28.1681 116.062 26.7464L115.125 27.0945ZM117.857 30.9427C119.122 31.9474 120.716 32.4318 122.599 32.4318V31.4318C120.892 31.4318 119.532 30.9958 118.479 30.1596L117.857 30.9427Z" fill="black"/>
</g>
<defs>
<filter id="filter0_d_3_13" x="0.759949" y="0.0909119" width="137.703" height="53.2727" filterUnits="userSpaceOnUse" color-interpolation-filters="sRGB">
<feFlood flood-opacity="0" result="BackgroundImageFix"/>
<feColorMatrix in="SourceAlpha" type="matrix" values="0 0 0 0 0 0 0 0 0 0 0 0 0 0 0 0 0 0 127 0" result="hardAlpha"/>
<feOffset dy="4"/>
<feGaussianBlur stdDeviation="2"/>
<feComposite in2="hardAlpha" operator="out"/>
<feColorMatrix type="matrix" values="0 0 0 0 0 0 0 0 0 0 0 0 0 0 0 0 0 0 0.25 0"/>
<feBlend mode="normal" in2="BackgroundImageFix" result="effect1_dropShadow_3_13"/>
<feBlend mode="normal" in="SourceGraphic" in2="effect1_dropShadow_3_13" result="shape"/>
</filter>
</defs>
</svg>
